<svg xmlns="http://www.w3.org/2000/svg" width="900" height="240" viewBox="0 0 900 240">
  <rect width="900" height="240" fill="#fafafa" stroke="#ddd"/>
  <g font-family="system-ui, sans-serif" font-size="15" fill="#111" text-anchor="middle">
    <rect x="30" y="80" width="140" height="60" fill="#fff" stroke="#111" stroke-width="1.5"/>
    <text x="100" y="105">frontmatter</text>
    <text x="100" y="125" font-size="12" fill="#666">gray-matter</text>
    <rect x="230" y="80" width="140" height="60" fill="#fff" stroke="#111" stroke-width="1.5"/>
    <text x="300" y="105">parse</text>
    <text x="300" y="125" font-size="12" fill="#666">remark + gfm</text>
    <rect x="430" y="80" width="140" height="60" fill="#fff" stroke="#111" stroke-width="1.5"/>
    <text x="500" y="105">transforms</text>
    <text x="500" y="125" font-size="12" fill="#666">figures · video</text>
    <rect x="630" y="80" width="140" height="60" fill="#fff" stroke="#111" stroke-width="1.5"/>
    <text x="700" y="105">render</text>
    <text x="700" y="125" font-size="12" fill="#666">rehype + KaTeX</text>
  </g>
  <g stroke="#111" stroke-width="1.5" fill="#111">
    <line x1="170" y1="110" x2="222" y2="110"/><path d="M222 105 L232 110 L222 115 Z"/>
    <line x1="370" y1="110" x2="422" y2="110"/><path d="M422 105 L432 110 L422 115 Z"/>
    <line x1="570" y1="110" x2="622" y2="110"/><path d="M622 105 L632 110 L622 115 Z"/>
  </g>
  <text x="450" y="200" font-family="system-ui, sans-serif" font-size="14" fill="#666" text-anchor="middle">One HTML output · single-column screen reading · two-column A4 print</text>
</svg>
